<svg width="22" height="22" viewBox="0 0 22 22" fill="none" xmlns="http://www.w3.org/2000/svg">
<path d="M7.84899 10.6142C7.84899 9.03146 9.19937 7.64569 11.4007 7.64569C12.7276 7.64569 14.1518 8.96191 14.1518 10.6142C14.1518 12.2657 12.7277 13.582 11.4007 13.582C9.19929 13.582 7.84899 12.1962 7.84899 10.6142ZM5.27981 0.5H16.7202C19.377 0.5 21.5 2.57322 21.5 5.09424V16.1335C21.5 18.6546 19.3769 20.7285 16.7202 20.7285H5.27981C2.62305 20.7285 0.5 18.6546 0.5 16.1335V5.09424C0.5 2.57322 2.62295 0.5 5.27981 0.5ZM4.87533 10.6142C4.87533 13.8859 7.66568 16.4561 11.4007 16.4561C14.3539 16.4561 17.3651 13.8686 17.3651 10.6142C17.3651 7.35903 14.3538 4.77236 11.4007 4.77236C7.66573 4.77236 4.87533 7.34175 4.87533 10.6142ZM15.1548 4.48334C15.1548 4.94382 15.3413 5.49402 15.6187 5.92749C15.8829 6.34028 16.3422 6.81527 16.9695 6.81527C17.2762 6.81527 17.5645 6.69776 17.802 6.55308C18.0449 6.4052 18.2713 6.20694 18.4643 5.99233C18.6577 5.77729 18.8286 5.5335 18.9535 5.28528C19.0751 5.04367 19.1704 4.76325 19.1704 4.48334C19.1704 3.89581 18.7658 3.45187 18.3725 3.18616C17.9664 2.91181 17.4452 2.73497 16.9695 2.73497C15.992 2.73497 15.1548 3.49325 15.1548 4.48334Z" fill="white" stroke="black"/>
</svg>
