<svg width="22" height="23" viewBox="0 0 22 23" fill="none" xmlns="http://www.w3.org/2000/svg">
<path fill-rule="evenodd" clip-rule="evenodd" d="M16.7196 22.1934H5.28042C2.36376 22.1934 0 19.8086 0 16.8676V5.32662C0 2.38481 2.36376 0 5.28042 0H16.7196C19.6362 0 22 2.38481 22 5.32662V16.8676C22 19.8086 19.6362 22.1934 16.7196 22.1934ZM16.7074 9.57027C17.2466 8.77642 17.6189 7.87967 17.8019 6.93554H15.4276C14.9322 8.7756 14.0595 10.4401 12.0358 10.5977V6.93554H9.62505V13.3443C8.15822 12.9743 6.25183 11.18 6.84682 6.93554H3.65736C3.77635 12.7065 6.78368 16.1832 11.7516 16.1832H12.0269V12.882C13.8418 13.0666 15.1888 14.4256 15.7393 16.1832H18.3426C18.0852 15.1942 17.6254 14.2713 16.9916 13.4733C16.3585 12.6754 15.5668 12.0196 14.6667 11.55C15.4737 11.0379 16.1683 10.3641 16.7074 9.57027Z" fill="white"/>
</svg>
