<svg width="63" height="49" viewBox="0 0 63 49" fill="none" xmlns="http://www.w3.org/2000/svg">
<path d="M4.81474 41.619V42.8088H1.90474V47.0376H5.47414V48.2417H0.585938V36.3438H5.47414V37.5479H1.90474V41.6047H4.81474V41.619Z" fill="white"/>
<path d="M14.3938 39.1973V39.527H13.1323V39.1399C13.1323 38.0648 12.7309 37.4484 11.7705 37.4484C10.8101 37.4484 10.4087 38.0791 10.4087 39.1256C10.4087 41.7919 14.3938 42.0499 14.3938 45.3899C14.3938 47.1961 13.5337 48.3573 11.7132 48.3573C9.89263 48.3573 9.04688 47.1818 9.04688 45.3899V44.7162H10.2797V45.4616C10.2797 46.5367 10.7241 47.1531 11.6702 47.1531C12.6163 47.1531 13.0606 46.5224 13.0606 45.4616C13.0606 42.8096 9.08988 42.5516 9.08988 39.2116C9.08988 37.3767 9.93563 36.2443 11.7275 36.2443C13.548 36.2299 14.3938 37.4054 14.3938 39.1973Z" fill="white"/>
<path d="M19.8378 48.242V37.5625H17.6445V36.3584H23.3498V37.5625H21.1709V48.242H19.8378Z" fill="white"/>
<path d="M27.0766 46.5938V48.2423H25.8008V46.5938H27.0766Z" fill="white"/>
<path d="M36.3372 39.2398C36.3372 42.8236 32.309 44.1137 32.2947 46.8517V47.038H36.2081V48.2422H30.9902V47.2244C30.9902 43.3826 35.0183 42.6372 35.0183 39.2972C35.0183 38.0787 34.617 37.4336 33.6279 37.4336C32.6531 37.4336 32.2374 38.136 32.2374 39.1825V40.2289H31.0046V39.2542C31.0046 37.4336 31.836 36.2295 33.6709 36.2295C35.5057 36.2295 36.3372 37.4193 36.3372 39.2398Z" fill="white"/>
<path d="M40.0098 39.2108C40.0098 37.3903 40.9129 36.2148 42.7334 36.2148C44.5683 36.2148 45.4714 37.3903 45.4714 39.2108V45.3462C45.4714 47.1667 44.5683 48.3565 42.7334 48.3565C40.9129 48.3565 40.0098 47.1667 40.0098 45.3462V39.2108ZM41.3142 45.4322C41.3142 46.5073 41.773 47.1524 42.7191 47.1524C43.6938 47.1524 44.1239 46.5073 44.1239 45.4322V39.1535C44.1239 38.064 43.6795 37.419 42.7191 37.419C41.773 37.419 41.3142 38.064 41.3142 39.1535V45.4322Z" fill="white"/>
<path d="M51.6895 38.5086C51.2451 38.781 50.6718 38.9817 50.041 39.0247V37.9352C51.3312 37.8779 51.7755 37.1898 52.0766 36.3584H52.994V48.242H51.6895V38.5086Z" fill="white"/>
<path d="M63.0008 39.1681V39.5409C63.0008 40.745 62.5707 41.6338 61.639 41.9921C62.6281 42.3792 63.0008 43.3109 63.0008 44.5007V45.3895C63.0008 47.2244 62.0547 48.3568 60.2055 48.3568C58.3563 48.3568 57.4102 47.2244 57.4102 45.3895V44.5007C57.4102 43.2966 57.7829 42.3935 58.7863 41.9921C57.8115 41.6194 57.4102 40.7593 57.4102 39.5409V39.1681C57.4102 37.3333 58.3849 36.2295 60.2055 36.2295C62.026 36.2295 63.0008 37.3333 63.0008 39.1681ZM58.7003 39.1968V39.7702C58.7003 40.9314 59.2593 41.4331 60.1911 41.4331C61.1229 41.4331 61.6819 40.917 61.6819 39.7702V39.1968C61.6819 37.9784 61.1229 37.4193 60.1911 37.4193C59.2593 37.4193 58.7003 37.9784 58.7003 39.1968ZM58.7003 44.3431V45.3465C58.7003 46.565 59.245 47.1527 60.1911 47.1527C61.1372 47.1527 61.6676 46.5793 61.6819 45.3465V44.3431C61.6819 43.1819 61.1659 42.6229 60.1911 42.6229C59.2163 42.6229 58.7003 43.1963 58.7003 44.3431Z" fill="white"/>
<path d="M62.4709 1.98165C62.1412 -0.369279 59.9336 0.0177667 59.4319 0.0321016C58.9158 0.0321016 56.4645 0.118108 56.4645 0.118108C56.0202 0.146777 55.5901 0.175452 55.1457 0.204122C53.5546 0.318802 51.9634 0.505148 50.4152 0.806181C49.8705 0.906526 49.3258 1.03554 48.781 1.15022C46.4444 1.73795 44.2655 2.59805 42.4307 3.90253C42.0293 4.18923 41.6709 4.44726 41.3269 4.71962C38.3022 7.0132 37.1698 8.56137 35.1629 9.79417C35.1055 9.82284 35.0769 9.96619 35.0338 9.92319C35.0338 9.92319 35.0339 9.88018 35.0482 9.85151C35.0482 9.83718 35.0482 9.82285 35.0482 9.80851C35.0625 9.60782 35.0052 9.40713 34.9048 9.22077C34.7615 8.96275 34.5321 8.76206 34.2598 8.69038C34.2024 8.67605 34.1451 8.67605 34.0877 8.69038C33.371 8.83373 32.6399 8.90541 31.9232 8.89107C31.8802 8.89107 31.8372 8.89107 31.7798 8.89107C31.4215 8.90541 31.0774 8.89107 30.719 8.8624C30.3033 8.83373 29.8876 8.77639 29.4719 8.69038C29.4146 8.67605 29.3572 8.67605 29.3142 8.69038C28.8698 8.80506 28.4828 9.32112 28.5258 9.80851C28.5258 9.82285 28.5258 9.83717 28.5258 9.83717C28.5258 9.86584 28.5401 9.92318 28.5401 9.90885C28.5115 9.83717 28.4541 9.8085 28.3968 9.7655C27.8521 9.4358 27.3647 9.06309 26.8916 8.67605C26.6909 8.50403 26.4759 8.33201 26.2752 8.14566C25.7592 7.68694 25.2431 7.19956 24.6267 6.65483C24.4404 6.48281 24.2253 6.29646 24.0103 6.12444C23.4943 5.68006 22.9209 5.22134 22.2614 4.71962C22.0464 4.56194 21.8314 4.38991 21.602 4.23223C21.4587 4.11755 21.3153 4.01721 21.1577 3.90253C20.5556 3.47248 19.9105 3.09977 19.2511 2.77007C18.9931 2.64105 18.7207 2.51204 18.4627 2.39736C17.7029 2.06766 16.9145 1.76662 16.0974 1.52293C15.7964 1.42258 15.481 1.35091 15.18 1.2649C14.3056 1.03554 13.3881 0.849188 12.4707 0.691504C12.1267 0.634164 11.7826 0.576828 11.4243 0.533823C10.2201 0.361804 9.00165 0.26146 7.78319 0.175451C7.39614 0.146781 7.0091 0.132442 6.63639 0.118108C6.63639 0.118108 4.24247 0.046433 3.95577 0.046433C3.66907 0.046433 1.4615 -0.225925 1.10312 1.99599C0.974108 2.77007 1.06012 3.73051 1.28947 4.76262C1.34681 5.04932 1.43282 5.35035 1.5045 5.63705C1.74819 6.54015 2.06356 7.47192 2.37893 8.38935C2.47928 8.66172 2.56528 8.93408 2.65129 9.20644C2.92365 9.99486 3.18169 10.7689 3.38238 11.4857C3.46839 11.7867 3.54006 12.0734 3.61173 12.3458C3.75508 12.9622 3.84109 13.5069 3.84109 13.9943C3.84109 14.367 3.81242 14.7541 3.76941 15.1268C3.72641 15.5425 3.66907 15.9438 3.58306 16.3596C3.28203 17.9077 2.7803 19.4129 2.4076 20.8894C2.29292 21.3338 2.20691 21.7638 2.1209 22.1939C1.94888 23.1973 1.8772 24.1864 2.04922 25.1899C2.09223 25.4766 2.16391 25.7776 2.24992 26.0786C2.24992 26.0786 2.62262 27.8562 4.5865 28.0425C5.90532 28.1572 7.16679 28.2862 8.3996 28.2432C8.84398 28.2289 9.28835 28.2002 9.7184 28.1715C11.1949 28.0425 12.6284 27.7701 14.0045 27.3831C14.6783 27.1968 15.3377 26.9674 15.9828 26.7237C17.789 26.05 19.4948 25.1755 21.1003 24.1864C22.9925 23.011 24.3257 21.7782 25.5872 20.6457C25.5872 20.6457 25.6875 20.5167 26.2322 20.3447C26.4042 20.2873 26.6049 20.2443 26.8916 20.1726C27.336 20.0866 27.8377 20.0006 28.3968 19.929C29.4432 19.7999 30.6474 19.7426 31.7798 19.7426C32.0665 19.7426 32.3532 19.7426 32.6399 19.7569C33.027 19.7713 33.4283 19.7856 33.801 19.8143C34.9048 19.8859 35.937 20.015 36.7254 20.187C36.9547 20.2443 37.1554 20.3017 37.3418 20.359C37.3418 20.359 37.8865 20.5454 38.3022 20.9467C38.6319 21.2764 38.9903 21.5631 39.363 21.8785L39.9937 22.4089C40.6531 22.9393 41.3699 23.484 42.2013 24.0144C42.2873 24.0717 42.3733 24.1291 42.4593 24.1864C42.617 24.2724 42.7604 24.3728 42.918 24.4588C43.5918 24.8602 44.2799 25.2329 44.9823 25.5912C45.2403 25.7203 45.4983 25.8493 45.7707 25.9639C46.5161 26.308 47.2759 26.6234 48.0643 26.8957C48.351 26.9961 48.652 27.0964 48.9531 27.1824C49.9708 27.4978 51.0316 27.7558 52.1211 27.9422C52.4651 27.9995 52.8091 28.0568 53.1675 28.0999C54.1996 28.2289 55.2747 28.2719 56.3642 28.2432C56.7942 28.2289 57.2243 28.2145 57.6687 28.1715C58.3711 28.1142 58.8871 28.0855 59.6039 27.9422C60.5643 27.7415 60.851 27.1824 60.851 27.1824C61.8831 25.1469 61.6968 23.1543 61.2094 21.1188C61.1377 20.8321 61.066 20.5453 60.98 20.2443C60.722 19.3125 60.4353 18.3665 60.206 17.406C60.1343 17.1193 60.0626 16.8183 60.0053 16.5172C59.8332 15.6858 59.7329 14.8544 59.7329 13.9943C59.7329 13.937 59.7329 13.8796 59.7329 13.8223C59.7472 13.4639 59.8046 13.0482 59.8906 12.6182C60.1343 11.457 60.6217 10.0665 61.109 8.64738L61.4818 7.52926C62.1698 5.4507 62.7289 3.41514 62.4709 1.98165Z" fill="white"/>
</svg>
